<?xml version="1.0" encoding="UTF-8"?>
<svg id="Calque_2" data-name="Calque 2" xmlns="http://www.w3.org/2000/svg" viewBox="0 0 409.47 102.12">
  <defs>
    <style>
      .cls-1 {
        fill: #e31019;
      }

      .cls-1, .cls-2 {
        stroke-width: 0px;
      }

      .cls-2 {
        fill: #efefef;
      }
    </style>
  </defs>
  <g id="Calque_1-2" data-name="Calque 1">
    <g>
      <path class="cls-1" d="m19.06,57.45C12.72,39.34,6.38,20.7,0,1.44c5.61-.01,11.22-.03,16.83-.04,3.58,11.98,7.16,23.76,10.73,35.35.1,0,.19-.01.29-.02,3.61-11.98,7.23-23.77,10.85-35.38,5.13-.01,10.26-.02,15.39-.03-6.42,17.77-12.84,36-19.24,54.76-.03,13.52-.05,27.05-.08,40.57-5.25.75-10.5,1.53-15.75,2.35.02-13.85.03-27.7.05-41.55Z"/>
      <path class="cls-1" d="m57.33,71.77c.05-16.18.09-32.37.14-48.55C57.51,8.38,66.02-.06,81.55,0c15.53.04,23.99,8.04,23.95,22-.05,15.33-.1,30.66-.15,45.99-.04,13.97-8.57,22.61-24.1,24.26-15.53,1.69-23.96-5.62-23.93-20.47Zm32.19-1.81c.05-16.17.1-32.33.16-48.5.02-6.34-3.14-8.71-8.17-8.65-5.03.07-8.21,2.57-8.23,9.05-.05,16.47-.1,32.94-.15,49.41-.02,6.48,3.13,8.62,8.17,8.16,5.03-.46,8.21-3.13,8.23-9.47Z"/>
      <path class="cls-1" d="m115.43,67.38c.07-22.05.13-44.1.2-66.15,5.27,0,10.55-.01,15.82-.02-.06,22.11-.12,44.21-.18,66.32-.02,6.12,3,8.16,8.05,7.91,5.05-.24,8.08-2.54,8.09-8.59.05-21.88.1-43.77.15-65.65,5.08,0,10.16,0,15.25,0-.04,21.4-.07,42.8-.11,64.21-.02,13.47-8.12,21.37-23.69,22.23-15.57.91-23.61-6.33-23.57-20.26Z"/>
      <path class="cls-1" d="m174.03,1.2c7.81,0,15.63,0,23.44,0,16.4,0,23.45,6.32,23.46,19.22,0,1.71,0,3.42,0,5.13,0,8.6-3.3,14.06-10.36,16.42,0,.08,0,.16,0,.24,7.92,2.05,10.52,8.29,10.53,17.71,0,4.89,0,9.79.01,14.68,0,4.06.15,7.04,1.74,10.17-5.39-.08-10.78-.13-16.17-.13-.87-2.15-1.44-3.46-1.44-10.25,0-5.09,0-10.17,0-15.26,0-7.75-2.74-10.26-9.95-10.23-1.83,0-3.65.02-5.48.03,0,11.93-.02,23.87-.02,35.8-5.29.07-10.58.17-15.88.3.04-27.94.07-55.89.11-83.83Zm21.56,35.77c5.91-.02,9.51-2.16,9.51-8.84,0-2.15,0-4.29,0-6.44,0-5.96-2.45-8.58-8.06-8.58-2.4,0-4.8,0-7.2.01,0,7.96-.01,15.91-.02,23.87,1.92-.01,3.84-.02,5.76-.03Z"/>
      <path class="cls-2" d="m231.99,1.2c13.95,0,27.9.01,41.86.02.01,4.07.02,8.13.03,12.2-8.68-.08-17.36-.14-26.04-.19.01,7.82.03,15.64.04,23.46,6.82.11,13.63.24,20.45.39,0,4.05.02,8.1.03,12.16-6.82-.21-13.64-.38-20.46-.52.02,12.23.04,24.46.07,36.69-5.29-.19-10.58-.34-15.87-.46-.03-27.92-.07-55.83-.1-83.75Z"/>
      <path class="cls-2" d="m281.47,1.23c5.27,0,10.55,0,15.82.02.08,24.85.15,49.69.23,74.54,8.69.58,17.37,1.23,26.05,1.97.01,4.25.03,8.5.04,12.75-13.95-1.38-27.92-2.52-41.9-3.41-.08-28.62-.16-57.24-.24-85.86Z"/>
      <path class="cls-2" d="m330.94,1.29c5.27,0,10.55.02,15.82.02.09,30.58.18,61.16.27,91.74-5.26-.62-10.53-1.21-15.8-1.77-.1-30-.19-59.99-.29-89.99Z"/>
      <path class="cls-2" d="m372.6,47.78c-5.82-15.88-11.66-31.34-17.5-46.46,5.56,0,11.12.02,16.68.03,3.57,10.22,7.13,20.6,10.69,31.15.1,0,.19,0,.29.01,3.62-10.2,7.25-20.57,10.88-31.12,4.99.01,9.97.02,14.96.03-5.8,16.36-11.58,32.24-17.35,47.71,6.09,17.13,12.16,34.76,18.21,52.97-5.52-.95-11.05-1.86-16.58-2.73-3.83-11.99-7.66-23.75-11.5-35.3l-.29-.03c-3.9,10.8-7.8,21.41-11.69,31.86-4.97-.68-9.94-1.34-14.92-1.96,6.03-15.03,12.07-30.4,18.11-46.18Z"/>
    </g>
  </g>
</svg>